<svg width="207" height="99" viewBox="0 0 207 99" fill="none" xmlns="http://www.w3.org/2000/svg">
<path d="M146.771 18.2379C143.334 16.5416 139.809 15.7595 136.144 14.7296C122.243 10.8225 106.645 10.9429 92.3161 10.8086C77.636 10.671 61.9543 12.4659 47.9709 17.1766C35.6269 21.335 21.7054 26.6845 12.3569 36.2807C6.97677 41.8032 2.95518 49.4021 7.53174 56.8588C13.4633 66.5233 25.2646 72.7007 35.3337 76.4936C43.9928 79.7554 53.2074 80.6276 62.274 81.9477C72.8599 83.489 83.1357 85.1022 93.867 85.1022C117.724 85.1022 143.046 82.7473 166.072 76.0808C179.571 72.1725 196.112 66.519 203.811 53.38C211.982 39.4366 199.584 28.4508 189.221 20.5965C178.018 12.1061 163.709 10.0058 150.304 7.77197C137.259 5.59818 124.389 3.77844 111.157 3.90988C86.6689 4.15314 63.0789 10.3467 39.8141 17.7073C27.5835 21.5768 13.8194 27.7551 5.06173 37.7548C-11.6368 56.8214 23.1024 78.453 37.4016 81.5054C46.7254 83.4958 56.3819 83.7272 65.8641 84.2767C78.8683 85.0303 91.9095 84.9773 104.896 83.9229C120.319 82.6707 135.934 81.156 151.137 78.1151C162.909 75.7603 175.275 72.6914 185.631 66.234C197.121 59.069 204.886 47.994 199.244 34.3054C197.463 29.9845 193.561 27.6121 189.91 24.9597C178.922 16.9777 166.982 7.56688 153.722 4.0278C141.095 0.657937 126.361 0.645191 113.397 1.58083C96.0809 2.83063 78.4127 7.59235 62.1878 13.7862C53.6993 17.0267 45.6852 21.1054 37.8037 25.6673C31.0916 29.5523 23.7496 33.5359 18.1011 38.993C10.6204 46.2201 3.96179 57.3008 8.27848 68.0618C13.1258 80.1457 24.6289 88.3652 36.2527 92.4431C57.5994 99.932 82.3007 98.6613 104.379 96.4526C130.872 93.8023 158.652 90.5276 183.017 78.7342C192.023 74.3749 205.513 63.9077 200.135 51.9059C192.631 35.1619 180.285 24.6609 163.889 17.6483C158.68 15.4206 153.31 14.245 147.748 13.344C138.804 11.8954 129.587 10.6307 120.52 10.3958C113.969 10.2261 107.309 11.041 100.818 11.752C91.144 12.8116 81.3063 13.8745 71.9242 16.6459C57.652 20.8618 42.873 27.6802 30.2788 35.7795C24.8603 39.2641 13.2993 45.5545 12.9026 53.2916C12.5045 61.056 19.4122 66.5912 25.3675 69.9781C40.263 78.4496 58.5249 80.912 75.2558 81.6234C90.7955 82.2841 106.159 80.6935 121.554 78.6162C139.268 76.2261 157.004 73.8979 174.688 71.3048" stroke="#F86C23" stroke-width="0.83" stroke-linecap="round" stroke-linejoin="round"/>
</svg>
