<?xml version="1.0" encoding="utf-8"?>
<!-- Generator: Adobe Illustrator 14.0.0, SVG Export Plug-In . SVG Version: 6.00 Build 43363)  -->
<!DOCTYPE svg PUBLIC "-//W3C//DTD SVG 1.1//EN" "http://www.w3.org/Graphics/SVG/1.1/DTD/svg11.dtd">
<svg version="1.1" id="Calque_1" xmlns="http://www.w3.org/2000/svg" xmlns:xlink="http://www.w3.org/1999/xlink" x="0px" y="0px"
	 width="63.654px" height="63.499px" viewBox="18.852 17.036 63.654 63.499" enable-background="new 18.852 17.036 63.654 63.499"
	 xml:space="preserve">
<g>
	<path fill="#8124CA" d="M34.792,21.309l10.053,7.108l4.698-11.38l5.598,10.965l9.449-7.894l-0.139,12.312l12.035-2.599
		l-5.844,10.836l11.863,3.292l-10.211,6.88l8.975,8.429l-12.238,1.346l4.031,11.634L61.6,67.742l-1.838,12.174l-8.061-9.307
		l-7.285,9.926l-2.812-11.987l-11.063,5.403l3.081-11.92l-12.307-0.357l8.268-9.123l-10.731-6.036l11.561-4.236l-6.697-10.332
		l12.205,1.622L34.792,21.309z"/>
	<path fill="#FFFFFF" d="M37.106,51.035l1.195-0.689l7.288,4.125l-3.608-6.25l0.877-0.507l4.366,7.562l-1.058,0.609l-7.561-4.277
		l3.743,6.482l-0.877,0.506L37.106,51.035z M44.893,46.54l4.41-2.546l0.434,0.75l-3.49,2.015l1.484,2.57l2.813-1.625l0.434,0.751
		l-2.813,1.625l1.581,2.738l3.68-2.125l0.434,0.752l-4.6,2.655L44.893,46.54z M50.414,43.352l0.941-0.543l5.057,5.217l-1.746-7.128
		l0.655-0.378l5.312,5.097l-1.98-7.02l0.856-0.495l2.398,8.697l-0.846,0.488L55.898,42.3l1.684,6.995l-0.836,0.482L50.414,43.352z"
		/>
</g>
</svg>
